<?xml version="1.0" encoding="UTF-8"?>
<svg width="1000px" height="1000px" viewBox="0 0 1000 1000" version="1.1" xmlns="http://www.w3.org/2000/svg" xmlns:xlink="http://www.w3.org/1999/xlink">
    <!-- Generator: Sketch 52.6 (67491) - http://www.bohemiancoding.com/sketch -->
    <title>Thys Logo</title>
    <desc>Logo by Hovnan Eayrs</desc>
    <g id="Logo-3" stroke="none" stroke-width="1" fill="none" fill-rule="evenodd">
        <path d="M489.36509,638.127961 C503.642545,637.709685 515.957389,634.900305 526.267096,630.354753 C533.752714,627.054343 539.56702,623.071616 542.664134,619.871306 C544.698053,617.769617 548.202646,609.958746 550.30819,601.706832 C552.911827,591.502829 553.23661,581.999132 550.827628,575.354528 C547.715098,566.769354 541.324599,547.423774 531.625804,517.232594 L505.370173,455.888662 C502.867581,450.041581 498.095394,445.463181 492.149647,443.204992 L488.602442,441.857766 L488.602442,427.146492 L552.116421,427.146492 L552.116421,441.972346 L548.424735,443.257567 C544.707516,444.551676 542.743198,448.61416 544.037307,452.331379 C544.076161,452.442983 544.117784,452.553604 544.162139,452.663138 L580.114212,541.446745 L599.206903,460.67021 C601.022754,452.987785 596.266956,445.28791 588.584531,443.472059 C588.525712,443.458156 588.466806,443.444627 588.407816,443.431471 L584.104962,442.471893 L584.104962,427.146492 L645.354601,427.146492 L645.354601,438.821773 L645.149333,439.5519 C637.605854,466.383651 635.498044,474.44892 622.910636,523.586834 C615.665022,551.871794 612.072752,564.687022 608.095248,575.395043 C606.748384,579.020998 605.466892,582.75948 603.612871,588.385085 C603.273705,589.414208 601.990132,593.324887 601.691084,594.232817 C600.929928,596.543729 600.315576,598.388661 599.710515,600.17307 C592.861684,620.37121 586.78158,633.123723 577.476414,643.855087 C565.463448,657.709273 549.347182,665.532039 527.766355,666.739855 C515.373579,667.433442 505.738549,668.001769 498.170001,668.476996 C495.270217,668.659072 492.780738,668.820739 490.495841,668.973989 C489.614587,669.033096 488.792806,669.088983 487.919353,669.149022 C487.440622,669.181928 486.072204,669.276495 485.979942,669.282851 C483.406953,669.460116 482.609339,669.504045 481.42889,669.522733 C480.643369,669.535169 476.211746,669.521318 475.598137,669.521318 C474.655624,669.521318 473.709348,669.445946 472.766997,669.298923 L169.670758,669.298923 L169.670758,669.599314 L154,669.599314 C145.439586,669.599314 138.5,662.659727 138.5,654.099314 L138.5,395 C138.5,386.439586 145.439586,379.5 154,379.5 L169.670758,379.5 L169.670758,379.55707 L246.439726,379.55707 C255.288028,362.022604 262.43637,350.910729 267.917016,345.650914 C271.302973,342.401388 274.558469,340.799864 278.092802,341.75038 C282.105988,342.829678 283.709356,346.297978 283.709356,350.225407 L283.709356,379.55707 L347.753148,379.55707 C345.260935,370.792789 341.508747,362.415514 336.596964,354.692217 C335.011583,352.199359 334.935664,349.205438 336.500401,346.66683 C338.871442,342.820085 347.619819,339.557882 359.145121,336.851562 C364.096296,335.688949 368.800561,334.887542 372.539186,334.609958 C374.72594,334.447597 376.609884,334.458405 378.207583,334.682448 C380.84656,335.052508 382.956532,335.952535 384.391556,338.124643 C386.40194,341.167638 386.862844,352.441585 386.680818,379.55707 L868,379.55707 C876.560414,379.55707 883.5,386.496656 883.5,395.05707 L883.5,653.798923 C883.5,655.222728 883.306546,656.626269 882.928592,657.978165 C881.162683,664.612767 875.196885,669.352799 868.237363,669.482097 C781.065847,671.101612 715.108224,671.896102 670.352256,671.865386 C647.935597,671.850001 630.823544,671.627698 618.995172,671.197115 C604.965528,670.686401 599.163468,670.115891 596.598112,668.231898 C592.557499,665.264477 592.090625,660.545978 593.769618,655.326248 C594.89119,651.839453 597.062113,647.887419 599.916486,643.887274 C606.008337,635.3501 613.202704,628.715967 618.551814,628.715967 C621.501028,628.715967 624.14298,629.751173 626.086847,631.850128 C629.777323,635.835041 634.962543,638.100238 640.393854,638.100238 L852.329242,638.100238 L852.329242,410.755755 L386.276023,410.755755 C386.103056,420.303063 385.877586,430.828555 385.599616,442.332513 C389.978913,438.734214 393.311907,436.33905 397.411634,434.031916 C406.253191,429.056303 416.076473,426.568665 426.788929,426.568665 C445.50164,426.568665 460.369617,432.639605 470.956688,444.797892 C475.875279,450.446445 478.606152,457.389049 479.89917,466.379336 C480.856463,473.035348 481.015966,478.672415 480.973894,493.437425 C480.967131,495.811014 480.9647,496.972215 480.9647,498.375635 L480.964717,576.046268 C480.964717,585.309783 486.910393,593.527128 495.709229,596.424229 C499.358037,597.625633 501.2924,600.99896 500.532062,604.551656 C500.116211,606.494724 498.946713,608.235604 497.533572,609.426585 C495.396133,611.227996 490.184544,611.43975 473.487462,611.584406 C458.47189,611.714494 451.419729,611.479335 448.878353,609.856504 C447.179069,608.771402 446.666227,607.667587 446.236558,605.999445 C446.080786,605.394678 445.9642,604.709321 445.864142,603.888091 C445.696408,602.51142 445.564851,600.63507 445.461193,598.215148 C445.261105,593.544024 445.162064,586.734089 445.162064,577.758471 C445.162064,559.912165 445.554255,533.435926 446.338406,498.315066 C446.330544,485.497384 443.826133,476.373741 439.119884,470.820821 C434.565705,465.447327 427.643015,462.708749 417.895617,462.708749 C410.897309,462.708749 404.606689,464.449339 398.909781,467.945672 C393.493539,471.269753 388.967954,475.697047 385.302596,481.276226 L385.302589,576.958041 C385.302589,585.494582 390.377119,593.214194 398.213831,596.599228 C399.560823,597.181055 400.646007,597.756841 401.533216,598.402617 C403.322737,599.705163 404.551067,601.326228 404.551067,603.845188 C404.551067,606.808855 402.827219,608.614923 400.577804,609.640295 C399.542118,610.112401 398.352933,610.419869 396.901367,610.65199 L396.46987,610.720991 L396.032891,610.720991 C368.413647,610.720991 368.413647,610.720991 350.572079,610.720991 C343.484608,610.720991 343.484608,610.720991 338.841557,610.720991 C336.97836,610.720991 336.97836,610.720991 335.726267,610.720991 C334.779727,610.720991 334.779727,610.720991 334.444292,610.720991 C330.622438,610.720991 328.01501,607.724035 327.567398,604.386734 C327.081634,600.764977 329.227502,597.289908 333.101747,596.31471 C343.834082,593.613238 351.356704,583.962418 351.356704,572.895305 L351.356726,410.755755 L283.709356,410.755755 L283.709356,547.247367 C283.709356,547.923535 283.706608,548.236692 283.687713,550.035439 C283.61194,557.248811 283.748978,561.663429 284.422523,566.582669 C284.720894,568.761826 285.113438,570.783157 285.60775,572.635665 C287.955381,581.43377 289.984431,583.953613 295.869111,583.953613 C297.227448,583.953613 297.85929,583.801404 299.208008,583.240778 C299.316258,583.195782 299.803163,582.991288 299.939628,582.934556 C303.0282,581.650556 305.604793,581.072734 309.70742,581.072734 C314.075104,581.072734 317.62188,583.423488 318.263113,587.709467 C318.682604,590.513334 317.694482,593.316123 315.818773,596.158568 C312.698289,600.88734 307.13531,605.515789 301.374526,607.912139 C293.44254,611.211658 284.685545,612.470617 276.93714,610.628356 C268.285298,608.571293 259.988391,602.706843 255.083098,595.952173 C247.266029,585.187938 243.509648,568.956675 243.509648,547.247367 L243.509648,410.755755 L169.670758,410.755755 L169.670758,637.292291 L484.252287,637.292291 C486.008782,637.292291 487.731586,637.577431 489.36509,638.127961 Z M714.885161,461.886726 C707.150267,463.47444 701.4881,465.464733 697.972454,467.728018 C690.771699,472.363686 688.626472,474.761208 688.276645,479.241934 C687.904911,484.00326 689.790406,487.578947 694.483482,492.332838 C698.667447,496.571021 705.75065,499.691159 722.786651,503.501411 C743.876979,508.218448 760.427378,514.935262 771.009596,523.260772 C783.014468,532.705547 788.672373,542.670149 788.672373,556.717739 C788.672373,573.217117 782.155735,586.7984 769.330027,597.008562 C756.776606,607.001964 740.524293,611.951962 720.770966,611.951962 C708.098858,611.951962 696.645936,610.4129 686.418826,607.313634 C676.152905,604.202606 666.947893,599.680639 658.829966,593.748172 L656.585946,592.108273 L656.405474,545.657392 L675.748958,545.657392 L676.460485,550.329295 C678.304406,562.436515 687.643203,572.031164 699.696246,574.201579 C701.656496,574.554591 703.21144,574.873381 704.389278,575.167109 C709.733384,576.499815 715.190544,577.166029 720.770966,577.166029 C730.050447,577.166029 737.040311,575.284206 741.869527,571.689728 C746.367226,568.342005 748.472665,564.230623 748.472665,558.880097 C748.472665,553.752085 746.694685,549.747177 742.992577,546.473918 C739.616065,543.488539 737.98949,542.140889 735.493394,540.403892 C730.532546,536.951709 725.136068,534.42731 718.810028,532.94638 C715.801177,532.262011 705.682395,530.045028 703.799432,529.620042 C687.317458,525.900049 678.610199,522.873518 671.463625,517.362691 C660.215978,508.689466 654.5,496.776835 654.5,482.116406 C654.5,466.887021 660.781342,453.796118 673.085331,443.197151 C685.257594,432.711656 700.987695,427.5 720.029857,427.5 C732.580851,427.5 740.935795,428.323606 748.105208,430.311444 C755.784405,432.440628 760.213578,434.852424 767.405836,440.955452 L769.347289,442.602881 L769.347289,484.313831 L751.504801,484.313831 L750.913139,479.482367 C749.937304,471.513771 744.149896,464.971544 736.359848,463.030967 C735.232017,462.750014 734.201273,462.428921 733.262807,462.061077 C730.771973,461.084764 724.442549,460.927634 714.885161,461.886726 Z" id="Combined-Shape" stroke="#000000" stroke-width="11"></path>
    </g>
</svg>
