<?xml version="1.0" encoding="UTF-8"?>
<svg width="2000px" height="2000px" viewBox="0 0 2000 2000" version="1.1" xmlns="http://www.w3.org/2000/svg" xmlns:xlink="http://www.w3.org/1999/xlink">
    <!-- Generator: Sketch 52.6 (67491) - http://www.bohemiancoding.com/sketch -->
    <title>Logo 3@4x</title>
    <desc>Created with Sketch.</desc>
    <defs>
        <radialGradient cx="79.9289436%" cy="71.6114928%" fx="79.9289436%" fy="71.6114928%" r="86.8980106%" id="radialGradient-1">
            <stop stop-color="#61C9E0" offset="0%"></stop>
            <stop stop-color="#8681ED" offset="58.927242%"></stop>
            <stop stop-color="#B721FF" offset="100%"></stop>
            <stop stop-color="#B472D4" offset="100%"></stop>
        </radialGradient>
        <filter x="-12.6%" y="-15.0%" width="125.1%" height="120.5%" filterUnits="objectBoundingBox" id="filter-2">
            <feGaussianBlur stdDeviation="50" in="SourceGraphic"></feGaussianBlur>
        </filter>
        <radialGradient cx="89.5529681%" cy="50%" fx="89.5529681%" fy="50%" r="83.5322252%" id="radialGradient-3">
            <stop stop-color="#46A7F0" offset="0%"></stop>
            <stop stop-color="#54D4B4" offset="59.5797616%"></stop>
            <stop stop-color="#5DF28C" offset="100%"></stop>
        </radialGradient>
        <filter x="-13.7%" y="-15.0%" width="127.5%" height="125.0%" filterUnits="objectBoundingBox" id="filter-4">
            <feGaussianBlur stdDeviation="50" in="SourceGraphic"></feGaussianBlur>
        </filter>
        <radialGradient cx="86.3846453%" cy="72.0289946%" fx="86.3846453%" fy="72.0289946%" r="79.6154036%" gradientTransform="translate(0.863846,0.720290),rotate(-142.051923),scale(1.000000,0.973014),translate(-0.863846,-0.720290)" id="radialGradient-5">
            <stop stop-color="#F15B6C" offset="0%"></stop>
            <stop stop-color="#F26374" offset="35.8846069%"></stop>
            <stop stop-color="#F57C8B" offset="64.7612973%"></stop>
            <stop stop-color="#FFCFD8" offset="100%"></stop>
        </radialGradient>
        <filter x="-13.7%" y="-15.0%" width="127.5%" height="125.0%" filterUnits="objectBoundingBox" id="filter-6">
            <feGaussianBlur stdDeviation="50" in="SourceGraphic"></feGaussianBlur>
        </filter>
        <radialGradient cx="9.37382744%" cy="72.7584994%" fx="9.37382744%" fy="72.7584994%" r="103.956982%" gradientTransform="translate(0.093738,0.727585),scale(0.936379,1.000000),rotate(-26.304004),translate(-0.093738,-0.727585)" id="radialGradient-7">
            <stop stop-color="#FFF194" offset="0%"></stop>
            <stop stop-color="#FFD98D" offset="30.735283%"></stop>
            <stop stop-color="#FF8A75" offset="58.8647163%"></stop>
            <stop stop-color="#FF6C6C" offset="100%"></stop>
        </radialGradient>
        <filter x="-15.5%" y="-16.6%" width="131.1%" height="133.2%" filterUnits="objectBoundingBox" id="filter-8">
            <feGaussianBlur stdDeviation="50" in="SourceGraphic"></feGaussianBlur>
        </filter>
    </defs>
    <g id="Logo-3" stroke="none" stroke-width="1" fill="none" fill-rule="evenodd">
        <polygon id="Star" fill="url(#radialGradient-1)" filter="url(#filter-2)" points="804 1020 510.107374 1174.5085 566.235871 847.254249 328.471742 615.491503 657.053687 567.745751 804 270 950.946313 567.745751 1279.52826 615.491503 1041.76413 847.254249 1097.89263 1174.5085"></polygon>
        <polygon id="Star" fill="url(#radialGradient-3)" filter="url(#filter-4)" points="1260 1225.87398 1043.05813 1311.48443 974.730038 1088.4952 772.536044 972.260467 904.274175 779.807902 869.084259 549.255099 1101.68711 532.259906 1260 361 1418.31289 532.259906 1650.91574 549.255099 1615.72582 779.807902 1747.46396 972.260467 1545.26996 1088.4952 1476.94187 1311.48443"></polygon>
        <polygon id="Star" fill="url(#radialGradient-5)" filter="url(#filter-6)" points="1260 1649.56892 1043.05813 1720.48443 963.241071 1506.65735 772.536044 1381.26047 889.947668 1185.53797 869.084259 958.255099 1095.31122 928.020222 1260 770 1424.68878 928.020222 1650.91574 958.255099 1630.05233 1185.53797 1747.46396 1381.26047 1556.75893 1506.65735 1476.94187 1720.48443"></polygon>
        <path d="M804,1472 L727.705277,1552.22312 C715.121151,1565.4552 699.154095,1574.98896 681.53605,1579.79028 L510.107374,1626.5085 L510.107374,1357.03227 L369.716183,1423.4276 L313.564391,1299.25425 L657.053687,1019.74575 L804,722 L950.946313,1019.74575 L1279.52826,1067.4915 L1041.76413,1299.25425 L1097.89263,1626.5085 L804,1472 Z" id="Star" fill="url(#radialGradient-7)" filter="url(#filter-8)"></path>
        <rect id="Rectangle" fill-opacity="0.263530344" fill="#FFFFFF" x="0" y="0" width="2000" height="2000"></rect>
        <path d="M986.357593,1141.47656 C1002.16707,1141.39002 1015.82498,1138.40729 1027.26035,1133.30435 C1035.49382,1129.63023 1041.95459,1125.08953 1045.52098,1121.2769 C1048.15112,1118.46516 1051.91582,1109.78447 1054.18108,1100.59964 C1056.96932,1089.29435 1057.32065,1078.65832 1054.5827,1070.84523 C1051.48755,1062.01283 1045.08636,1041.96314 1035.37125,1010.67329 L1008.92358,946.744245 C1006.06423,939.832637 1000.51546,934.382137 993.553875,931.646716 L992.602442,931.272869 L992.602442,923.146492 L1048.11642,923.146492 L1048.11642,931.304689 L1047.12472,931.661876 C1041.16908,933.806954 1038.08001,940.373884 1040.22509,946.329525 C1040.26052,946.427896 1040.29729,946.525776 1040.3354,946.62314 L1081.1179,1050.81757 L1103.23599,954.005955 C1105.52327,943.994468 1099.27431,934.020943 1089.26774,931.712226 L1088.10496,931.44395 L1088.10496,923.146492 L1141.3546,923.146492 L1141.3546,930.450803 L1141.30211,930.643976 C1133.74661,958.447658 1131.63491,966.807186 1119.0387,1017.67954 C1111.83184,1046.78593 1108.25962,1059.97022 1104.35121,1070.85604 C1102.98261,1074.66791 1101.68715,1078.57779 1099.81848,1084.44389 C1099.47831,1085.51174 1098.19459,1089.5581 1097.89647,1090.49451 C1097.13872,1092.87461 1096.52787,1094.77246 1095.9272,1096.60515 C1089.2351,1117.02344 1083.34463,1129.80537 1074.47063,1140.39332 C1063.17222,1153.87394 1048.06236,1161.46178 1027.54572,1162.64974 C1015.14446,1163.3678 1005.50062,1163.95631 997.922573,1164.44858 C995.017174,1164.63732 992.522096,1164.80495 990.231613,1164.96389 C989.34803,1165.0252 988.524106,1165.08317 987.648591,1165.14543 C987.168976,1165.17954 985.800129,1165.27741 985.708562,1165.28393 C983.203827,1165.46246 982.45499,1165.50513 981.366393,1165.52296 C980.624694,1165.53511 976.256767,1165.52098 975.598137,1165.52098 C974.783061,1165.52098 973.95927,1165.44586 973.135531,1165.29892 L643.670758,1165.29892 L643.670758,1165.65638 L632,1165.65638 C625.648725,1165.65638 620.5,1160.50766 620.5,1154.15638 L620.5,895.05707 C620.5,888.705795 625.648725,883.55707 632,883.55707 L757.387023,883.55707 C766.731359,865.163835 774.178513,853.66989 779.569648,848.566977 C784.558855,843.844504 788.699708,844.85741 788.699708,850.138225 L788.699708,883.55707 L859.231334,883.55707 C857.172102,870.052139 852.323024,857.104093 844.972213,845.545662 C844.194124,844.322193 844.159968,842.975251 844.905527,841.765667 C846.431258,839.290342 854.908368,836.129292 865.059512,833.745645 C876.194393,831.131002 884.208529,830.535972 886.054131,833.329545 C887.537915,835.575459 887.95265,851.439909 887.580639,883.55707 L1368,883.55707 C1374.35127,883.55707 1379.5,888.705795 1379.5,895.05707 L1379.5,1153.79892 C1379.5,1154.91795 1379.33971,1156.01717 1379.035,1157.04447 C1377.68836,1161.91806 1373.28003,1165.38347 1368.15307,1165.47426 C1182.35648,1168.76454 1090.32838,1168.70729 1085.06775,1165.02813 C1080.66717,1161.95047 1083.11954,1154.69 1089.49423,1146.18249 C1095.0531,1138.76374 1101.94003,1132.71597 1105.56191,1132.71597 C1107.5551,1132.71597 1109.20169,1133.34913 1110.3966,1134.63009 C1114.84129,1139.39482 1121.06475,1142.10024 1127.58072,1142.10024 L1356.32924,1142.10024 L1356.32924,906.755755 L887.21984,906.755755 C887.009604,917.894522 886.730819,930.311503 886.383486,944.006801 C887.102344,943.429588 887.850841,942.817878 888.663403,942.145384 C889.200893,941.700545 892.19808,939.197131 893.051954,938.494636 C897.309468,934.991917 900.483494,932.706869 904.373349,930.517841 C912.605789,925.88501 921.752665,923.568665 931.788929,923.568665 C949.396994,923.568665 963.153595,929.185804 972.940067,940.424676 C977.294987,945.425905 979.748143,951.662478 980.93991,959.948772 C981.858706,966.33712 982.015375,971.874033 981.97391,986.426027 C981.967136,988.803312 981.9647,989.967241 981.9647,991.375636 L981.964717,1069.04627 C981.964717,1080.03691 989.018929,1089.78633 999.458257,1093.22358 C1001.16568,1093.78577 1001.95344,1095.15953 1001.62064,1096.71454 C1001.40748,1097.71051 1000.73542,1098.71092 999.955805,1099.36797 C999.04042,1100.13945 990.696225,1100.47848 978.452809,1100.58456 C965.753627,1100.69458 957.493665,1100.41914 956.031132,1099.48522 C954.942666,1098.79017 954.706206,1096.84943 954.457529,1091.04396 C954.26037,1086.44123 954.162064,1079.68184 954.162064,1070.75847 C954.162064,1052.93747 954.55433,1026.4667 955.338425,991.375636 C955.338425,977.662774 952.589173,967.627105 947.171363,961.234611 C941.797047,954.893436 933.746666,951.708749 922.895617,951.708749 C915.165881,951.708749 908.150256,953.649946 901.817497,957.536515 C895.563589,961.374693 890.395252,966.558897 886.302596,973.104882 L886.302589,1069.95804 C886.302589,1080.09056 892.325843,1089.25341 901.627693,1093.27131 C906.918516,1095.55665 906.918516,1098.79887 901.269748,1099.70217 L901.152067,1099.72099 L901.032891,1099.72099 C873.413647,1099.72099 873.413647,1099.72099 855.572079,1099.72099 C848.484608,1099.72099 848.484608,1099.72099 843.841557,1099.72099 C841.97836,1099.72099 841.97836,1099.72099 840.726267,1099.72099 C839.779727,1099.72099 839.779727,1099.72099 839.444292,1099.72099 C837.893787,1099.72099 836.73814,1098.3927 836.531898,1096.855 C836.307394,1095.18114 837.250576,1093.65373 839.078143,1093.19371 C851.588096,1090.04479 860.356704,1078.79549 860.356704,1065.89531 L860.356727,906.755755 L788.699708,906.755755 L788.699708,1041.83474 C788.699708,1042.47302 788.696982,1042.77528 788.678281,1044.50743 C788.600602,1051.70245 788.74222,1056.1413 789.449081,1061.16432 C789.768523,1063.43431 790.191818,1065.55507 790.730617,1067.51972 C793.488031,1077.57423 796.654368,1081.40016 804.859463,1081.40016 C806.81293,1081.40016 807.945651,1081.13467 809.747043,1080.40612 C809.864361,1080.35867 810.351378,1080.15966 810.47883,1080.10811 C813.102984,1079.04666 815.163105,1078.59715 818.697772,1078.59715 C821.254649,1078.59715 822.980274,1079.70996 823.296581,1081.767 C823.541743,1083.36136 822.851193,1085.26715 821.459961,1087.31843 C818.773122,1091.28001 813.834726,1095.27774 808.815236,1097.30929 C801.606444,1100.22692 793.681618,1101.33545 786.861636,1099.75776 C779.184701,1097.98183 771.688638,1092.82664 767.321668,1086.9758 C760.079196,1077.27236 756.5,1062.22474 756.5,1041.83474 L756.5,906.755755 L643.670758,906.755755 L643.670758,1141.29229 L984.252287,1141.29229 C984.963222,1141.29229 985.666929,1141.35426 986.357593,1141.47656 Z M1251.34729,968.10622 L1252.84729,968.10622 L1251.34729,969.60622 L1251.34729,968.10622 Z M1203.28615,948.332182 C1195.00964,950.045487 1188.8467,952.239947 1184.81709,954.878977 C1176.64763,960.229238 1173.76595,963.505532 1173.28893,969.721002 C1172.80667,976.004887 1175.21246,980.646192 1180.6459,986.24523 C1185.47976,991.226421 1193.2039,994.687738 1210.91897,998.718399 C1231.47861,1003.39627 1247.5081,1010.0142 1257.54612,1018.04816 C1268.64548,1026.93156 1273.67237,1035.93795 1273.67237,1048.85754 C1273.67237,1064.39185 1267.71404,1077.02434 1255.84854,1086.63348 C1244.05141,1096.18725 1228.67343,1100.95196 1209.77097,1100.95196 C1197.47313,1100.95196 1186.4062,1099.43905 1176.57203,1096.40731 C1166.72786,1093.3725 1157.9282,1088.97489 1150.18018,1083.21482 L1149.57798,1082.76713 L1149.42114,1041.70102 L1161.31533,1041.70102 L1161.50665,1042.97893 C1163.60593,1057.00124 1174.37037,1068.14738 1188.31103,1070.73379 C1190.04032,1071.0546 1191.4102,1071.3429 1192.42731,1071.60093 C1198.0871,1073.03677 1203.8673,1073.75463 1209.77097,1073.75463 C1219.84346,1073.75463 1227.65639,1071.61484 1233.24797,1067.38094 C1238.75518,1063.21092 1241.47267,1057.81259 1241.47267,1051.0573 C1241.47267,1044.66978 1239.20449,1039.47234 1234.63257,1035.36011 C1231.14503,1032.22323 1229.42865,1030.77658 1226.76827,1028.89324 C1221.41164,1025.10117 1215.55885,1022.31596 1208.69171,1020.68065 C1205.66324,1019.9799 1195.54012,1017.72361 1193.67465,1017.29529 C1177.74573,1013.63793 1169.43225,1010.6983 1162.89638,1005.57122 C1152.647,997.531084 1147.5,986.61872 1147.5,972.965916 C1147.5,958.698116 1153.25065,946.50594 1164.68636,936.484549 C1176.0917,926.48977 1190.89604,921.5 1209.02986,921.5 C1221.25291,921.5 1229.27746,922.304718 1236.04289,924.212988 C1243.14946,926.217482 1247.06585,928.386938 1253.82746,934.223774 L1254.34729,934.67251 L1254.34729,971.10622 L1244.04209,971.10622 L1243.88311,969.785493 C1242.70953,960.036352 1235.68334,952.001572 1226.17772,949.538544 C1225.26621,949.30235 1224.44546,949.039298 1223.71435,948.747775 C1220.42949,947.437964 1213.5631,947.271027 1203.28615,948.332182 Z" id="Combined-Shape" stroke="#000000" stroke-width="3" fill="#000000"></path>
    </g>
</svg>