<?xml version="1.0" encoding="UTF-8"?>
<svg width="2000px" height="1500px" viewBox="0 0 2000 1500" version="1.1" xmlns="http://www.w3.org/2000/svg" xmlns:xlink="http://www.w3.org/1999/xlink">
    <!-- Generator: Sketch 52.6 (67491) - http://www.bohemiancoding.com/sketch -->
    <title>Logo 3@4x</title>
    <desc>Created with Sketch.</desc>
    <defs>
        <radialGradient cx="79.9289436%" cy="71.6114928%" fx="79.9289436%" fy="71.6114928%" r="86.8980106%" id="radialGradient-1">
            <stop stop-color="#61C9E0" offset="0%"></stop>
            <stop stop-color="#8681ED" offset="58.927242%"></stop>
            <stop stop-color="#B721FF" offset="100%"></stop>
            <stop stop-color="#B472D4" offset="100%"></stop>
        </radialGradient>
        <filter x="-12.6%" y="-15.0%" width="125.1%" height="120.5%" filterUnits="objectBoundingBox" id="filter-2">
            <feGaussianBlur stdDeviation="50" in="SourceGraphic"></feGaussianBlur>
        </filter>
        <radialGradient cx="89.5529681%" cy="50%" fx="89.5529681%" fy="50%" r="83.5322252%" id="radialGradient-3">
            <stop stop-color="#46A7F0" offset="0%"></stop>
            <stop stop-color="#54D4B4" offset="59.5797616%"></stop>
            <stop stop-color="#5DF28C" offset="100%"></stop>
        </radialGradient>
        <filter x="-13.7%" y="-15.0%" width="127.5%" height="125.0%" filterUnits="objectBoundingBox" id="filter-4">
            <feGaussianBlur stdDeviation="50" in="SourceGraphic"></feGaussianBlur>
        </filter>
        <radialGradient cx="86.3846453%" cy="72.0289946%" fx="86.3846453%" fy="72.0289946%" r="79.6154036%" gradientTransform="translate(0.863846,0.720290),rotate(-142.051923),scale(1.000000,0.973014),translate(-0.863846,-0.720290)" id="radialGradient-5">
            <stop stop-color="#F15B6C" offset="0%"></stop>
            <stop stop-color="#F26374" offset="35.8846069%"></stop>
            <stop stop-color="#F57C8B" offset="64.7612973%"></stop>
            <stop stop-color="#FFCFD8" offset="100%"></stop>
        </radialGradient>
        <filter x="-13.7%" y="-15.0%" width="127.5%" height="125.0%" filterUnits="objectBoundingBox" id="filter-6">
            <feGaussianBlur stdDeviation="50" in="SourceGraphic"></feGaussianBlur>
        </filter>
        <radialGradient cx="9.37382744%" cy="72.7584994%" fx="9.37382744%" fy="72.7584994%" r="103.956982%" gradientTransform="translate(0.093738,0.727585),scale(0.936379,1.000000),rotate(-26.304004),translate(-0.093738,-0.727585)" id="radialGradient-7">
            <stop stop-color="#FFF194" offset="0%"></stop>
            <stop stop-color="#FFD98D" offset="30.735283%"></stop>
            <stop stop-color="#FF8A75" offset="58.8647163%"></stop>
            <stop stop-color="#FF6C6C" offset="100%"></stop>
        </radialGradient>
        <filter x="-15.5%" y="-16.6%" width="131.1%" height="133.2%" filterUnits="objectBoundingBox" id="filter-8">
            <feGaussianBlur stdDeviation="50" in="SourceGraphic"></feGaussianBlur>
        </filter>
    </defs>
    <g id="Logo-3" stroke="none" stroke-width="1" fill="none" fill-rule="evenodd">
        <polygon id="Star" fill="url(#radialGradient-1)" filter="url(#filter-2)" points="814 798 520.107374 952.508497 576.235871 625.254249 338.471742 393.491503 667.053687 345.745751 814 48 960.946313 345.745751 1289.52826 393.491503 1051.76413 625.254249 1107.89263 952.508497"></polygon>
        <polygon id="Star" fill="url(#radialGradient-3)" filter="url(#filter-4)" points="1260 975.873977 1043.05813 1061.48443 974.730038 838.495204 772.536044 722.260467 904.274175 529.807902 869.084259 299.255099 1101.68711 282.259906 1260 111 1418.31289 282.259906 1650.91574 299.255099 1615.72582 529.807902 1747.46396 722.260467 1545.26996 838.495204 1476.94187 1061.48443"></polygon>
        <polygon id="Star" fill="url(#radialGradient-5)" filter="url(#filter-6)" points="1260 1329.56892 1043.05813 1400.48443 963.241071 1186.65735 772.536044 1061.26047 889.947668 865.53797 869.084259 638.255099 1095.31122 608.020222 1260 450 1424.68878 608.020222 1650.91574 638.255099 1630.05233 865.53797 1747.46396 1061.26047 1556.75893 1186.65735 1476.94187 1400.48443"></polygon>
        <path d="M804.435609,1222 L728.140886,1302.22312 C715.55676,1315.4552 699.589704,1324.98896 681.971659,1329.79028 L510.542983,1376.5085 L510.542983,1107.03227 L370.151792,1173.4276 L314,1049.25425 L657.489296,769.745751 L804.435609,472 L951.381922,769.745751 L1279.96387,817.491503 L1042.19974,1049.25425 L1098.32824,1376.5085 L804.435609,1222 Z" id="Star" fill="url(#radialGradient-7)" filter="url(#filter-8)"></path>
        <rect id="Rectangle" fill-opacity="0.263530344" fill="#FFFFFF" x="0" y="0" width="2000" height="1500"></rect>
        <path d="M986.357593,891.476562 C1002.16707,891.390022 1015.82498,888.407286 1027.26035,883.30435 C1035.49382,879.630232 1041.95459,875.089526 1045.52098,871.2769 C1048.15112,868.465157 1051.91582,859.78447 1054.18108,850.599641 C1056.96932,839.294349 1057.32065,828.658324 1054.5827,820.84523 C1051.48755,812.012834 1045.08636,791.963144 1035.37125,760.673295 L1008.92358,696.744245 C1006.06423,689.832637 1000.51546,684.382137 993.553875,681.646716 L992.602442,681.272869 L992.602442,673.146492 L1048.11642,673.146492 L1048.11642,681.304689 L1047.12472,681.661876 C1041.16908,683.806954 1038.08001,690.373884 1040.22509,696.329525 C1040.26052,696.427896 1040.29729,696.525776 1040.3354,696.62314 L1081.1179,800.817568 L1103.23599,704.005955 C1105.52327,693.994468 1099.27431,684.020943 1089.26774,681.712226 L1088.10496,681.44395 L1088.10496,673.146492 L1141.3546,673.146492 L1141.3546,680.450803 L1141.30211,680.643976 C1133.74661,708.447658 1131.63491,716.807186 1119.0387,767.679544 C1111.83184,796.785929 1108.25962,809.970222 1104.35121,820.856036 C1102.98261,824.667908 1101.68715,828.577791 1099.81848,834.443893 C1099.47831,835.511739 1098.19459,839.558097 1097.89647,840.494509 C1097.13872,842.874614 1096.52787,844.77246 1095.9272,846.605146 C1089.2351,867.02344 1083.34463,879.805369 1074.47063,890.393316 C1063.17222,903.873945 1048.06236,911.46178 1027.54572,912.649737 C1015.14446,913.367796 1005.50062,913.95631 997.922573,914.448584 C995.017174,914.637321 992.522096,914.804954 990.231613,914.96389 C989.34803,915.025202 988.524106,915.083172 987.648591,915.145433 C987.168976,915.17954 985.800129,915.277407 985.708562,915.283934 C983.203827,915.462463 982.45499,915.505131 981.366393,915.522961 C980.624694,915.535109 976.256767,915.520985 975.598137,915.520985 C974.783061,915.520985 973.95927,915.445865 973.135531,915.298923 L643.670758,915.298923 L643.670758,915.656383 L632,915.656383 C625.648725,915.656383 620.5,910.507658 620.5,904.156383 L620.5,645.05707 C620.5,638.705795 625.648725,633.55707 632,633.55707 L757.387023,633.55707 C766.731359,615.163835 774.178513,603.66989 779.569648,598.566977 C784.558855,593.844504 788.699708,594.85741 788.699708,600.138225 L788.699708,633.55707 L859.231334,633.55707 C857.172102,620.052139 852.323024,607.104093 844.972213,595.545662 C844.194124,594.322193 844.159968,592.975251 844.905527,591.765667 C846.431258,589.290342 854.908368,586.129292 865.059512,583.745645 C876.194393,581.131002 884.208529,580.535972 886.054131,583.329545 C887.537915,585.575459 887.95265,601.439909 887.580639,633.55707 L1368,633.55707 C1374.35127,633.55707 1379.5,638.705795 1379.5,645.05707 L1379.5,903.798923 C1379.5,904.91795 1379.33971,906.01717 1379.035,907.04447 C1377.68836,911.918058 1373.28003,915.383471 1368.15307,915.474265 C1182.35648,918.764543 1090.32838,918.707286 1085.06775,915.028131 C1080.66717,911.950471 1083.11954,904.690002 1089.49423,896.182492 C1095.0531,888.763743 1101.94003,882.715967 1105.56191,882.715967 C1107.5551,882.715967 1109.20169,883.349128 1110.3966,884.63009 C1114.84129,889.39482 1121.06475,892.100238 1127.58072,892.100238 L1356.32924,892.100238 L1356.32924,656.755755 L887.21984,656.755755 C887.009604,667.894522 886.730819,680.311503 886.383486,694.006801 C887.102344,693.429588 887.850841,692.817878 888.663403,692.145384 C889.200893,691.700545 892.19808,689.197131 893.051954,688.494636 C897.309468,684.991917 900.483494,682.706869 904.373349,680.517841 C912.605789,675.88501 921.752665,673.568665 931.788929,673.568665 C949.396994,673.568665 963.153595,679.185804 972.940067,690.424676 C977.294987,695.425905 979.748143,701.662478 980.93991,709.948772 C981.858706,716.33712 982.015375,721.874033 981.97391,736.426027 C981.967136,738.803312 981.9647,739.967241 981.9647,741.375636 L981.964717,819.046268 C981.964717,830.03691 989.018929,839.786332 999.458257,843.22358 C1001.16568,843.785765 1001.95344,845.15953 1001.62064,846.714543 C1001.40748,847.710507 1000.73542,848.710918 999.955805,849.367971 C999.04042,850.139448 990.696225,850.478485 978.452809,850.584556 C965.753627,850.694576 957.493665,850.419142 956.031132,849.485222 C954.942666,848.790166 954.706206,846.849426 954.457529,841.043964 C954.26037,836.441231 954.162064,829.681843 954.162064,820.758471 C954.162064,802.93747 954.55433,776.466698 955.338425,741.375636 C955.338425,727.662774 952.589173,717.627105 947.171363,711.234611 C941.797047,704.893436 933.746666,701.708749 922.895617,701.708749 C915.165881,701.708749 908.150256,703.649946 901.817497,707.536515 C895.563589,711.374693 890.395252,716.558897 886.302596,723.104882 L886.302589,819.958041 C886.302589,830.090557 892.325843,839.253413 901.627693,843.271307 C906.918516,845.556655 906.918516,848.798873 901.269748,849.702173 L901.152067,849.720991 L901.032891,849.720991 C873.413647,849.720991 873.413647,849.720991 855.572079,849.720991 C848.484608,849.720991 848.484608,849.720991 843.841557,849.720991 C841.97836,849.720991 841.97836,849.720991 840.726267,849.720991 C839.779727,849.720991 839.779727,849.720991 839.444292,849.720991 C837.893787,849.720991 836.73814,848.3927 836.531898,846.855 C836.307394,845.181145 837.250576,843.653734 839.078143,843.193711 C851.588096,840.044789 860.356704,828.795485 860.356704,815.895305 L860.356727,656.755755 L788.699708,656.755755 L788.699708,791.834739 C788.699708,792.473022 788.696982,792.775283 788.678281,794.507434 C788.600602,801.702454 788.74222,806.141296 789.449081,811.164321 C789.768523,813.43431 790.191818,815.55507 790.730617,817.519724 C793.488031,827.574228 796.654368,831.400162 804.859463,831.400162 C806.81293,831.400162 807.945651,831.134669 809.747043,830.406118 C809.864361,830.358671 810.351378,830.159658 810.47883,830.108105 C813.102984,829.046664 815.163105,828.597153 818.697772,828.597153 C821.254649,828.597153 822.980274,829.709959 823.296581,831.766998 C823.541743,833.361362 822.851193,835.26715 821.459961,837.318433 C818.773122,841.280006 813.834726,845.277738 808.815236,847.309289 C801.606444,850.226922 793.681618,851.335448 786.861636,849.757758 C779.184701,847.981826 771.688638,842.826645 767.321668,836.975795 C760.079196,827.272356 756.5,812.224742 756.5,791.834739 L756.5,656.755755 L643.670758,656.755755 L643.670758,891.292291 L984.252287,891.292291 C984.963222,891.292291 985.666929,891.354263 986.357593,891.476562 Z M1203.28615,698.332182 C1195.00964,700.045487 1188.8467,702.239947 1184.81709,704.878977 C1176.64763,710.229238 1173.76595,713.505532 1173.28893,719.721002 C1172.80667,726.004887 1175.21246,730.646192 1180.6459,736.24523 C1185.47976,741.226421 1193.2039,744.687738 1210.91897,748.718399 C1231.47861,753.396274 1247.5081,760.014199 1257.54612,768.048155 C1268.64548,776.931563 1273.67237,785.937954 1273.67237,798.857544 C1273.67237,814.391848 1267.71404,827.024337 1255.84854,836.633478 C1244.05141,846.187253 1228.67343,850.951962 1209.77097,850.951962 C1197.47313,850.951962 1186.4062,849.439048 1176.57203,846.407314 C1166.72786,843.372499 1157.9282,838.974891 1150.18018,833.214817 L1149.57798,832.767129 L1149.42114,791.701025 L1161.31533,791.701025 L1161.50665,792.978935 C1163.60593,807.001245 1174.37037,818.147383 1188.31103,820.733793 C1190.04032,821.0546 1191.4102,821.342901 1192.42731,821.600932 C1198.0871,823.036775 1203.8673,823.754631 1209.77097,823.754631 C1219.84346,823.754631 1227.65639,821.614838 1233.24797,817.380938 C1238.75518,813.210916 1241.47267,807.812589 1241.47267,801.057301 C1241.47267,794.669783 1239.20449,789.472339 1234.63257,785.360114 C1231.14503,782.223235 1229.42865,780.776583 1226.76827,778.893242 C1221.41164,775.101168 1215.55885,772.315961 1208.69171,770.680646 C1205.66324,769.979902 1195.54012,767.723605 1193.67465,767.295287 C1177.74573,763.637934 1169.43225,760.698299 1162.89638,755.571222 C1152.647,747.531084 1147.5,736.61872 1147.5,722.965916 C1147.5,708.698116 1153.25065,696.50594 1164.68636,686.484549 C1176.0917,676.48977 1190.89604,671.5 1209.02986,671.5 C1221.25291,671.5 1229.27746,672.304718 1236.04289,674.212988 C1243.14946,676.217482 1247.06585,678.386938 1253.82746,684.223774 L1254.34729,684.67251 L1254.34729,721.10622 L1244.04209,721.10622 L1243.88311,719.785493 C1242.70953,710.036352 1235.68334,702.001572 1226.17772,699.538544 C1225.26621,699.30235 1224.44546,699.039298 1223.71435,698.747775 C1220.42949,697.437964 1213.5631,697.271027 1203.28615,698.332182 Z" id="Combined-Shape" stroke="#000000" stroke-width="3" fill="#000000"></path>
    </g>
</svg>